<?xml version="1.0" encoding="utf-8"?>
<svg width="363px" height="182px" viewBox="0 0 363 182" fill="none" xmlns="http://www.w3.org/2000/svg">
  <mask id="mask0_4579_18719" style="mask-type:alpha" maskUnits="userSpaceOnUse" x="0" y="0" width="363" height="238">
    <rect x="0.5" y="0.0561523" width="362" height="237.944" fill="#D9D9D9"/>
  </mask>
  <g mask="url(#mask0_4579_18719)">
    <path d="M272 24.3056C245.597 9.06181 215.771 0.734329 185.291 0.0958484C154.81 -0.542632 124.662 6.52858 97.6434 20.6533L143.724 108.798C155.895 102.435 169.477 99.2491 183.208 99.5368C196.939 99.8244 210.375 103.576 222.269 110.443L272 24.3056Z" fill="#F4F5F5"/>
    <path d="M267.763 31.097C269.966 27.2672 268.655 22.3596 264.731 20.3279C240.141 7.59411 212.922 0.655522 185.166 0.0932743C157.409 -0.468974 129.931 5.36167 104.846 17.0892C100.843 18.9604 99.3345 23.8109 101.381 27.7268L140.034 101.7C142.08 105.615 146.902 107.091 150.999 105.438C161.183 101.331 172.118 99.3121 183.151 99.5356C194.185 99.7591 205.029 102.219 215.038 106.736C219.065 108.553 223.943 107.274 226.146 103.444L267.763 31.097Z" fill="url(#paint0_linear_4579_18719)"/>
    <path d="M95 31.2338C92.7909 27.4074 87.8871 26.0815 84.1621 28.4575C59.6388 44.1 39.2112 65.4467 24.6547 90.7204C10.0982 115.994 1.88466 144.376 0.6604 173.437C0.47444 177.852 4.08211 181.428 8.50038 181.419L91.9629 181.244C96.3812 181.234 99.9147 177.637 100.338 173.239C101.451 161.686 105.021 150.472 110.844 140.362C116.667 130.251 124.576 121.536 134.01 114.776C137.602 112.203 138.941 107.341 136.731 103.515L95 31.2338Z" fill="url(#paint1_linear_4579_18719)"/>
    <path d="M354.5 181.056C358.918 181.056 362.519 177.472 362.323 173.059C361.097 145.34 353.513 118.235 340.112 93.8588C326.711 69.4824 307.89 48.5549 285.143 32.6674C281.52 30.1375 276.566 31.2569 274.198 34.9874L229.477 105.457C227.109 109.188 228.243 114.101 231.724 116.823C240.393 123.601 247.623 132.083 252.952 141.775C258.28 151.467 261.567 162.117 262.645 173.069C263.078 177.466 266.619 181.056 271.037 181.056H354.5Z" fill="url(#paint2_linear_4579_18719)"/>
  </g>
  <defs>
    <linearGradient id="paint0_linear_4579_18719" x1="92.5253" y1="70.2191" x2="255.73" y2="71.7444" gradientUnits="userSpaceOnUse">
      <stop stop-color="#98DDB3"/>
      <stop offset="1" stop-color="#0E873E"/>
    </linearGradient>
    <linearGradient id="paint1_linear_4579_18719" x1="181.5" y1="0.0561523" x2="181.5" y2="362.056" gradientUnits="userSpaceOnUse">
      <stop stop-color="#4BB876"/>
      <stop offset="1" stop-color="#EEFDF4"/>
    </linearGradient>
    <linearGradient id="paint2_linear_4579_18719" x1="92.5253" y1="70.2191" x2="255.73" y2="71.7444" gradientUnits="userSpaceOnUse">
      <stop stop-color="#98DDB3"/>
      <stop offset="1" stop-color="#0E873E"/>
    </linearGradient>
  </defs>
</svg>