<svg width="362" height="182" xmlns="http://www.w3.org/2000/svg" fill="none">
 <mask height="238" width="363" y="0" x="0" maskUnits="userSpaceOnUse" id="mask0_4579_18719">
  <rect id="svg_1" fill="#D9D9D9" height="237.944" width="362" y="0.00001" x="0"/>
 </mask>
 <defs>
  <linearGradient y2="0.6669" x2="0.9222" y1="0.65272" x1="-0.04719" id="paint0_linear_4579_18719">
   <stop stop-color="#98DDB3"/>
   <stop stop-color="#0E873E" offset="1"/>
  </linearGradient>
  <linearGradient y2="2.17184" x2="1.31858" y1="-0.17655" x1="1.31858" id="paint1_linear_4579_18719">
   <stop stop-color="#4BB876"/>
   <stop stop-color="#EEFDF4" offset="1"/>
  </linearGradient>
  <linearGradient y2="0.27004" x2="0.20509" y1="0.25986" x1="-1.01192" id="paint2_linear_4579_18719">
   <stop stop-color="#98DDB3"/>
   <stop stop-color="#0E873E" offset="1"/>
  </linearGradient>
 </defs>
 <g>
  <title>Layer 1</title>
  <g id="svg_2" mask="url(#mask0_4579_18719)">
   <path id="svg_3" fill="#F4F5F5" d="m271.5,24.24946c-26.403,-15.24379 -56.229,-23.57127 -86.709,-24.20975c-30.481,-0.63848 -60.629,6.43273 -87.6476,20.55745l46.0806,88.1447c12.171,-6.363 25.753,-9.5489 39.484,-9.2612c13.731,0.2876 27.167,4.0392 39.061,10.9062l49.731,-86.1374z"/>
   <path id="svg_4" fill="url(#paint0_linear_4579_18719)" d="m267.263,31.04086c2.203,-3.8298 0.892,-8.7374 -3.032,-10.7691c-24.59,-12.73379 -51.809,-19.67238 -79.565,-20.23463c-27.757,-0.56224 -55.235,5.2684 -80.32,16.99593c-4.003,1.8712 -5.5115,6.7217 -3.465,10.6376l38.653,73.9732c2.046,3.915 6.868,5.391 10.965,3.738c10.184,-4.107 21.119,-6.1259 32.152,-5.9024c11.034,0.2235 21.878,2.6834 31.887,7.2004c4.027,1.817 8.905,0.538 11.108,-3.292l41.617,-72.347z"/>
   <path id="svg_5" fill="url(#paint1_linear_4579_18719)" d="m94.5,31.17766c-2.2091,-3.8264 -7.1129,-5.1523 -10.8379,-2.7763c-24.5233,15.6425 -44.9509,36.9892 -59.5074,62.2629c-14.5565,25.2736 -22.77004,53.6556 -23.9943,82.7166c-0.18596,4.415 3.42171,7.991 7.83998,7.982l83.46252,-0.175c4.4183,-0.01 7.9518,-3.607 8.3751,-8.005c1.113,-11.553 4.683,-22.767 10.506,-32.877c5.823,-10.111 13.732,-18.826 23.166,-25.586c3.592,-2.573 4.931,-7.435 2.721,-11.261l-41.731,-72.2812z"/>
   <path id="svg_6" fill="url(#paint2_linear_4579_18719)" d="m354,180.99986c4.418,0 8.019,-3.584 7.823,-7.997c-1.226,-27.719 -8.81,-54.824 -22.211,-79.2002c-13.401,-24.3764 -32.222,-45.3039 -54.969,-61.1914c-3.623,-2.5299 -8.577,-1.4105 -10.945,2.32l-44.721,70.4696c-2.368,3.731 -1.234,8.644 2.247,11.366c8.669,6.778 15.899,15.26 21.228,24.952c5.328,9.692 8.615,20.342 9.693,31.294c0.433,4.397 3.974,7.987 8.392,7.987l83.463,0z"/>
  </g>
 </g>
</svg>