<?xml version="1.0" encoding="utf-8"?>
<svg width="343" height="178" viewBox="0 0 343 178" fill="none" xmlns="http://www.w3.org/2000/svg">
  <mask id="mask0_478_9731" style="mask-type:alpha" maskUnits="userSpaceOnUse" x="0" y="0" width="343" height="178">
    <path d="M0 0H343V178H171.5H0L0 0Z" fill="#D9D9D9"/>
  </mask>
  <g mask="url(#mask0_478_9731)">
    <path d="M253.363 30.1588C255.536 26.3504 254.247 21.4845 250.363 19.4484C227.089 7.24486 201.327 0.588434 175.052 0.037257C148.78 -0.513866 122.771 5.05533 99.0191 16.2701C95.0526 18.1429 93.562 22.9536 95.5771 26.8497L131.946 97.1691C133.991 101.122 138.857 102.604 142.986 100.944C152.536 97.104 162.773 95.2213 173.1 95.4379C183.427 95.6546 193.578 97.9648 202.963 102.202C207.02 104.034 211.946 102.753 214.152 98.8866L253.363 30.1588Z" fill="#DB951F"/>
    <path d="M120.979 57L129.64 39.858V39.7188H119.587V36.6364H133.458V39.7884L124.807 57H120.979ZM143.473 57.2784C142.147 57.2784 140.961 57.0298 139.914 56.5327C138.866 56.0289 138.034 55.3395 137.418 54.4645C136.808 53.5895 136.483 52.5885 136.443 51.4616H140.023C140.089 52.2969 140.45 52.9796 141.107 53.5099C141.763 54.0336 142.552 54.2955 143.473 54.2955C144.196 54.2955 144.839 54.1297 145.402 53.7983C145.966 53.4669 146.41 53.0062 146.735 52.4162C147.059 51.8262 147.218 51.1534 147.212 50.3977C147.218 49.6288 147.056 48.946 146.725 48.3494C146.393 47.7528 145.939 47.2855 145.362 46.9474C144.786 46.6027 144.123 46.4304 143.374 46.4304C142.764 46.4238 142.164 46.5365 141.574 46.7685C140.984 47.0005 140.517 47.3054 140.172 47.6832L136.841 47.1364L137.905 36.6364H149.718V39.7188H140.958L140.371 45.1179H140.49C140.868 44.6738 141.402 44.3059 142.091 44.0142C142.78 43.7159 143.536 43.5668 144.358 43.5668C145.591 43.5668 146.691 43.8584 147.659 44.4418C148.627 45.0185 149.389 45.8139 149.946 46.8281C150.503 47.8423 150.781 49.0024 150.781 50.3082C150.781 51.6539 150.47 52.8537 149.847 53.9077C149.23 54.955 148.372 55.7803 147.271 56.3835C146.178 56.9801 144.912 57.2784 143.473 57.2784ZM170.355 45.3366V48.2997H161.187V45.3366H170.355ZM188.841 36.6364V57H185.143V41.3494H184.974C184.841 41.5549 184.589 41.777 184.218 42.0156C183.847 42.2476 183.369 42.4465 182.786 42.6122C182.209 42.7779 181.537 42.8608 180.768 42.8608V39.8778C181.47 39.8778 182.097 39.7552 182.647 39.5099C183.197 39.2647 183.664 38.9598 184.049 38.5952C184.44 38.2306 184.742 37.8693 184.954 37.5114C185.166 37.1534 185.282 36.8617 185.302 36.6364H188.841ZM201.561 57.3878C199.924 57.3878 198.519 56.9735 197.345 56.1449C196.179 55.3097 195.28 54.1065 194.651 52.5355C194.028 50.9579 193.716 49.0587 193.716 46.8381C193.723 44.6174 194.038 42.7282 194.661 41.1705C195.29 39.6061 196.189 38.4129 197.355 37.5909C198.529 36.7689 199.931 36.358 201.561 36.358C203.192 36.358 204.594 36.7689 205.767 37.5909C206.941 38.4129 207.839 39.6061 208.462 41.1705C209.092 42.7348 209.406 44.6241 209.406 46.8381C209.406 49.0653 209.092 50.9678 208.462 52.5455C207.839 54.1165 206.941 55.3163 205.767 56.1449C204.601 56.9735 203.199 57.3878 201.561 57.3878ZM201.561 54.2756C202.834 54.2756 203.838 53.6491 204.574 52.3963C205.316 51.1368 205.688 49.2841 205.688 46.8381C205.688 45.2206 205.519 43.8617 205.181 42.7614C204.843 41.661 204.365 40.8324 203.749 40.2756C203.132 39.7121 202.403 39.4304 201.561 39.4304C200.295 39.4304 199.294 40.0601 198.558 41.3196C197.823 42.5724 197.451 44.4119 197.445 46.8381C197.438 48.4621 197.601 49.8277 197.932 50.9347C198.27 52.0417 198.747 52.8769 199.364 53.4403C199.98 53.9972 200.713 54.2756 201.561 54.2756ZM220.237 57.3878C218.6 57.3878 217.194 56.9735 216.021 56.1449C214.854 55.3097 213.956 54.1065 213.327 52.5355C212.703 50.9579 212.392 49.0587 212.392 46.8381C212.398 44.6174 212.713 42.7282 213.336 41.1705C213.966 39.6061 214.864 38.4129 216.031 37.5909C217.204 36.7689 218.606 36.358 220.237 36.358C221.868 36.358 223.27 36.7689 224.443 37.5909C225.616 38.4129 226.515 39.6061 227.138 41.1705C227.767 42.7348 228.082 44.6241 228.082 46.8381C228.082 49.0653 227.767 50.9678 227.138 52.5455C226.515 54.1165 225.616 55.3163 224.443 56.1449C223.276 56.9735 221.874 57.3878 220.237 57.3878ZM220.237 54.2756C221.51 54.2756 222.514 53.6491 223.25 52.3963C223.992 51.1368 224.363 49.2841 224.363 46.8381C224.363 45.2206 224.194 43.8617 223.856 42.7614C223.518 41.661 223.041 40.8324 222.425 40.2756C221.808 39.7121 221.079 39.4304 220.237 39.4304C218.971 39.4304 217.97 40.0601 217.234 41.3196C216.498 42.5724 216.127 44.4119 216.121 46.8381C216.114 48.4621 216.276 49.8277 216.608 50.9347C216.946 52.0417 217.423 52.8769 218.04 53.4403C218.656 53.9972 219.389 54.2756 220.237 54.2756Z" fill="#F8F8F8"/>
    <path d="M89.7557 30.2888C87.5504 26.4215 82.6006 25.0828 78.8676 27.5086C55.8108 42.4915 36.5995 62.8739 22.8869 86.9801C9.14808 111.133 1.37259 138.243 0.165812 166.011C-0.0260345 170.425 3.58234 174.001 8.00078 173.992L86.2429 173.826C90.661 173.817 94.1931 170.219 94.6296 165.822C95.7185 154.853 99.0886 144.209 104.552 134.604C110.019 124.994 117.425 116.698 126.255 110.239C129.794 107.65 131.123 102.835 128.951 99.026L89.7557 30.2888Z" fill="#D94C4C"/>
    <path d="M335 173.645C339.418 173.645 343.019 170.062 342.818 165.648C341.612 139.168 334.433 113.282 321.787 89.991C309.166 66.7472 291.472 46.772 270.095 31.5644C266.466 28.9828 261.463 30.1134 259.098 33.887L217.098 100.896C214.77 104.61 215.895 109.474 219.321 112.208C227.432 118.68 234.201 126.751 239.201 135.961C244.198 145.163 247.3 155.266 248.354 165.659C248.8 170.054 252.339 173.645 256.758 173.645H335Z" fill="#22C55E"/>
    <path d="M35.0697 124.332C33.6663 124.332 32.4618 123.977 31.4561 123.267C30.4561 122.551 29.6862 121.52 29.1464 120.173C28.6123 118.821 28.3453 117.193 28.3453 115.29C28.351 113.386 28.6209 111.767 29.155 110.432C29.6947 109.091 30.4646 108.068 31.4646 107.364C32.4703 106.659 33.672 106.307 35.0697 106.307C36.4675 106.307 37.6692 106.659 38.6748 107.364C39.6805 108.068 40.4504 109.091 40.9845 110.432C41.5243 111.773 41.7942 113.392 41.7942 115.29C41.7942 117.199 41.5243 118.83 40.9845 120.182C40.4504 121.528 39.6805 122.557 38.6748 123.267C37.6748 123.977 36.4731 124.332 35.0697 124.332ZM35.0697 121.665C36.1606 121.665 37.0214 121.128 37.6521 120.054C38.2885 118.974 38.6067 117.386 38.6067 115.29C38.6067 113.903 38.4618 112.739 38.172 111.795C37.8822 110.852 37.4731 110.142 36.9447 109.665C36.4163 109.182 35.7913 108.94 35.0697 108.94C33.9845 108.94 33.1266 109.48 32.4959 110.56C31.8652 111.634 31.547 113.21 31.5413 115.29C31.5356 116.682 31.6748 117.852 31.9589 118.801C32.2487 119.75 32.6578 120.466 33.1862 120.949C33.7146 121.426 34.3425 121.665 35.0697 121.665ZM58.5477 114.003V116.543H50.6898V114.003H58.5477ZM68.351 124L75.7743 109.307V109.188H67.1578V106.545H79.047V109.247L71.6322 124H68.351ZM87.6315 124.239C86.4952 124.239 85.4781 124.026 84.5804 123.599C83.6827 123.168 82.9696 122.577 82.4412 121.827C81.9185 121.077 81.64 120.219 81.606 119.253H84.6741C84.731 119.969 85.0406 120.554 85.6031 121.009C86.1656 121.457 86.8418 121.682 87.6315 121.682C88.2508 121.682 88.802 121.54 89.2849 121.256C89.7679 120.972 90.1486 120.577 90.427 120.071C90.7054 119.565 90.8418 118.989 90.8361 118.341C90.8418 117.682 90.7025 117.097 90.4185 116.585C90.1344 116.074 89.7452 115.673 89.2508 115.384C88.7565 115.088 88.1883 114.94 87.5463 114.94C87.0236 114.935 86.5094 115.031 86.0037 115.23C85.498 115.429 85.0974 115.69 84.802 116.014L81.9469 115.545L82.8588 106.545H92.9838V109.188H85.4753L84.9724 113.815H85.0747C85.3986 113.435 85.856 113.119 86.4469 112.869C87.0378 112.614 87.6855 112.486 88.39 112.486C89.4469 112.486 90.39 112.736 91.2196 113.236C92.0491 113.73 92.7025 114.412 93.1798 115.281C93.6571 116.151 93.8957 117.145 93.8957 118.264C93.8957 119.418 93.6287 120.446 93.0946 121.349C92.5662 122.247 91.8304 122.955 90.8872 123.472C89.9497 123.983 88.8645 124.239 87.6315 124.239Z" fill="#F8F8F8"/>
    <path d="M260.813 106.545V124H257.643V110.585H257.498C257.384 110.761 257.168 110.952 256.85 111.156C256.532 111.355 256.123 111.526 255.623 111.668C255.129 111.81 254.552 111.881 253.893 111.881V109.324C254.495 109.324 255.032 109.219 255.504 109.009C255.975 108.798 256.376 108.537 256.705 108.224C257.041 107.912 257.299 107.602 257.481 107.295C257.663 106.989 257.762 106.739 257.779 106.545H260.813ZM271.716 124.332C270.313 124.332 269.108 123.977 268.102 123.267C267.102 122.551 266.332 121.52 265.793 120.173C265.259 118.821 264.992 117.193 264.992 115.29C264.997 113.386 265.267 111.767 265.801 110.432C266.341 109.091 267.111 108.068 268.111 107.364C269.117 106.659 270.318 106.307 271.716 106.307C273.114 106.307 274.315 106.659 275.321 107.364C276.327 108.068 277.097 109.091 277.631 110.432C278.171 111.773 278.44 113.392 278.44 115.29C278.44 117.199 278.171 118.83 277.631 120.182C277.097 121.528 276.327 122.557 275.321 123.267C274.321 123.977 273.119 124.332 271.716 124.332ZM271.716 121.665C272.807 121.665 273.668 121.128 274.298 120.054C274.935 118.974 275.253 117.386 275.253 115.29C275.253 113.903 275.108 112.739 274.818 111.795C274.528 110.852 274.119 110.142 273.591 109.665C273.063 109.182 272.438 108.94 271.716 108.94C270.631 108.94 269.773 109.48 269.142 110.56C268.511 111.634 268.193 113.21 268.188 115.29C268.182 116.682 268.321 117.852 268.605 118.801C268.895 119.75 269.304 120.466 269.832 120.949C270.361 121.426 270.989 121.665 271.716 121.665ZM287.724 124.332C286.32 124.332 285.116 123.977 284.11 123.267C283.11 122.551 282.34 121.52 281.8 120.173C281.266 118.821 280.999 117.193 280.999 115.29C281.005 113.386 281.275 111.767 281.809 110.432C282.349 109.091 283.119 108.068 284.119 107.364C285.124 106.659 286.326 106.307 287.724 106.307C289.122 106.307 290.323 106.659 291.329 107.364C292.335 108.068 293.104 109.091 293.639 110.432C294.178 111.773 294.448 113.392 294.448 115.29C294.448 117.199 294.178 118.83 293.639 120.182C293.104 121.528 292.335 122.557 291.329 123.267C290.329 123.977 289.127 124.332 287.724 124.332ZM287.724 121.665C288.815 121.665 289.675 121.128 290.306 120.054C290.943 118.974 291.261 117.386 291.261 115.29C291.261 113.903 291.116 112.739 290.826 111.795C290.536 110.852 290.127 110.142 289.599 109.665C289.07 109.182 288.445 108.94 287.724 108.94C286.639 108.94 285.781 109.48 285.15 110.56C284.519 111.634 284.201 113.21 284.195 115.29C284.19 116.682 284.329 117.852 284.613 118.801C284.903 119.75 285.312 120.466 285.84 120.949C286.369 121.426 286.997 121.665 287.724 121.665ZM302.462 121.205V109.409H305.138V121.205H302.462ZM297.902 116.645V113.969H309.698V116.645H297.902Z" fill="#F8F8F8"/>
  </g>
</svg>